# xmcd database file
#
# Track frame offsets:
# 150
# 16088
# 43565
# 62445
# 79384
# 104233
# 120651
# 136787
# 151319
# 170654
# 185231
# 198616
#
# Disc length: 2851 seconds
#
# Revision: 4
# Processed by: cddbd v1.5.1PL0 Copyright (c) Steve Scherf et al.
# Submitted via: CD-Runner 2004.04
#
DISCID=a60b210c
DTITLE=Cris Cuddy - Nowhere Town
DYEAR=2003
DGENRE=Country
TTITLE0=Nowhere Town
TTITLE1=X Ray Eyes
TTITLE2=What Harm Would it Do
TTITLE3=Ain't Love a Funny Thing
TTITLE4=Real True Love
TTITLE5=Take It Off
TTITLE6=The Loneliest Guy in Town
TTITLE7=The Way She Did Me
TTITLE8=Lucky Night
TTITLE9=Jusy Say No
TTITLE10=Overnight Sensation
TTITLE11=Lonely Ain't What It Used to Be
EXTD=
EXTT0=
EXTT1=
EXTT2=
EXTT3=
EXTT4=
EXTT5=
EXTT6=
EXTT7=
EXTT8=
EXTT9=
EXTT10=
EXTT11=
PLAYORDER=
